<svg id="Hippo_13" data-name="Hippo 13" xmlns="http://www.w3.org/2000/svg" viewBox="0 0 835 1100"><defs><style>.cls-1{font-size:158px;fill:#231f20;font-family:CaviarDreams-Bold, Caviar Dreams;letter-spacing:-0.04em;}.cls-2{font-weight:700;}.cls-3{font-family:CaviarDreams, Caviar Dreams;letter-spacing:-0.04em;}.cls-4{fill:#37409a;}.cls-5{fill:#272369;}</style></defs><title>Artboard 1</title><text class="cls-1" transform="translate(52.15 514.03)"><tspan class="cls-2">book</tspan><tspan class="cls-3" x="358.29" y="0">hippo</tspan></text><path class="cls-4" d="M351.51,727.92v2m156.68,34.57a2.53,2.53,0,0,1,.56,1.36V766c0,1,0,2,0,3m23.09-98.39c-1.73,0-3.45.07-5.16,0a1.89,1.89,0,0,0-2.15,1.33c-1.45,3.25-2.94,6.51-4.49,9.73-.3.66-.61,1.3-.92,1.94"/><path class="cls-5" d="M558.87,665.88c-.3,6-1.86,11.65-5.75,16.42-4.77,5.82-11.11,8-18.49,8.43-10.32.58-18.26-4-25.33-10.78A68.72,68.72,0,0,1,499,667.19a2.63,2.63,0,0,0-.36-.46,1,1,0,0,0-1.1-.26l.18,2.2a3.4,3.4,0,0,1-1.53,1.51c-4.11,1.89-8.25,3.71-12.41,5.51a2.5,2.5,0,0,0-1.64,1.89c-1.69,6.8-3.67,13.53-5.14,20.37,0,.2-.08.38-.1.58a16.91,16.91,0,0,0,0,4.17c0,.58.12,1.15.16,1.71l.1,1.07c.16,2.12.33,4.22.53,6.34.08,1.07.16,2.15.26,3.22s.18,2.32.28,3.47c.18,2,.36,4.06.53,6.08.51,6.18,1,12.38,1.56,18.56a3.37,3.37,0,0,0,1.1,2c1.61,1.43,3.37,2.68,5,4.09a1.87,1.87,0,0,1,.33.38,3.11,3.11,0,0,1,.56,1.51c0,1,0,2,0,3,0,1.4,0,2.84,0,4.34H437c.21-3.65-.41-7.23.61-10.8s2-7.36,2.89-11.06a4.57,4.57,0,0,0,.12-2.1c-1.18-5.64-2.43-11.26-3.67-16.9a10.55,10.55,0,0,0-.35-1l-17.46,3.24c-10.39,1.94-20.74,4.17-31.2,5.74-20.17,3-39-1.07-56.31-11.8l-1.55-.51-23.27-7.76c.48,6.38,1.05,12.74,1.58,19.12.53,6.18,1,12.38,1.58,18.56a3.37,3.37,0,0,0,1.1,2c1.59,1.43,3.35,2.68,5,4.09a3,3,0,0,1,.89,1.89c.1,2.38,0,4.77,0,7.33H266.56c.23-3.65-.41-7.23.61-10.8s2-7.36,2.91-11.06a6.63,6.63,0,0,0,0-2.42c-1.17-5.54-2.4-11.06-3.6-16.58q-.22-26.11-.43-52.24a65.71,65.71,0,0,1,.53-8.05c.07-.49.13-1,.2-1.45a15.05,15.05,0,0,0-3.07,6.57c-.15,1.92-.25,3.85-.44,5.77a5.15,5.15,0,0,1-2,3.85c-1.4,1-2.6.84-3.37-.72a6.62,6.62,0,0,1,.12-6.56,62.08,62.08,0,0,0,3.16-6.69c1.15-2.81,2-5.75,3.17-8.58a21.24,21.24,0,0,1,6.54-8.5,65.31,65.31,0,0,1,44.28-38.71,69,69,0,0,1,17.29-2.07q61,0,122,0l24.67-4.42a43.16,43.16,0,0,1,26.79,4.11l3.07,1.58a7.81,7.81,0,0,0,1,.36c.21-1.66.28-3.24.62-4.75a40.42,40.42,0,0,1,2.07-7c1.38-3.11,3.8-3.3,6-.71a15.58,15.58,0,0,1,3.34,8.45c.44,3.3.54,6.66.81,10a3.19,3.19,0,0,0,.41,1.17c2.3,3.45,4.62,6.89,6.92,10.34a1.31,1.31,0,0,0,1.4.69,22.45,22.45,0,0,1,4.82.07c4,.62,5,4.52,4,7.18a14.18,14.18,0,0,1-1.71,2.93,10.06,10.06,0,0,1-1.63,1.81c-4.54,3.65-3.76,7-1.56,11.28,2.61,5,6.76,8.83,11.13,12.28,3.55,2.81,7.31,5.36,11,7.94A2.85,2.85,0,0,1,558.87,665.88Z"/><path class="cls-4" d="M462,749.32a4.57,4.57,0,0,1-.12,2.1c.31-1.18-.49-2.15-.67-3.39-1.36-9.52-1.64-9-3.21-13.94-.44-1.41.31-1.76,0-2.68a10.55,10.55,0,0,1,.35,1C459.6,738.06,460.85,743.69,462,749.32Z"/><path class="cls-4" d="M499.15,726.67c-.2-2.12-.36-4.22-.53-6.34l-.1-1.07c0,.25.07.48.08.72C498.81,722.2,499,724.44,499.15,726.67Z"/></svg>